<svg version="1.1" xmlns="http://www.w3.org/2000/svg" xmlns:xlink="http://www.w3.org/1999/xlink" width="92.4" height="132.4" viewBox="0,0,92.4,132.4"><g transform="translate(-193.85,-113.85)"><g data-paper-data="{&quot;isPaintingLayer&quot;:true}" fill="#1374e9" fill-rule="nonzero" stroke="none" stroke-width="1" stroke-linecap="butt" stroke-linejoin="miter" stroke-miterlimit="10" stroke-dasharray="" stroke-dashoffset="0" style="mix-blend-mode: normal"><path d="M226.45,148.65l-21.8,-18.3c8.5,-10.1 21.2,-16.5 35.3,-16.5c4.9,0 9.7,0.8 14.1,2.2z"/><path d="M226.45,148.65l-28,33.3c-2.9,-6.3 -4.6,-13.3 -4.6,-22c0,-11.2 4.1,-21.6 10.8,-29.6z"/><path d="M240.05,142.35c-5.5,0 -10.3,2.5 -13.6,6.3l27.6,-32.6c11.7,3.7 21.4,11.9 27,22.7c-13.6,16.1 -27.5,32.7 -27.5,32.7c2.6,-3.1 4.2,-7.1 4.2,-11.4c0,-9.8 -7.9,-17.7 -17.7,-17.7"/><path d="M240.05,177.65c5.4,0 10.2,-2.4 13.5,-6.3l-34.1,40.5c-8.2,-10.7 -16.2,-19.3 -21,-29.9l28,-33.3c-2.6,3 -4.1,7 -4.1,11.3c0,9.8 7.9,17.7 17.7,17.7"/><path d="M252.95,223.05c-9.4,14.5 -6.8,23.2 -12.8,23.2c-6,0 -3.4,-8.6 -12.8,-23.1c-2.6,-4 -5.3,-7.9 -7.9,-11.3l61.6,-73.1c3.3,6.4 5.2,13.6 5.2,21.3c0,28 -17.9,38.9 -33.3,63"/></g></g></svg>